<?xml version="1.0" standalone="no"?>
<!DOCTYPE svg PUBLIC "-//W3C//DTD SVG 20010904//EN"
 "http://www.w3.org/TR/2001/REC-SVG-20010904/DTD/svg10.dtd">
<svg version="1.0" xmlns="http://www.w3.org/2000/svg"
 width="675.000000pt" height="192.000000pt" viewBox="0 0 675.000000 192.000000"
 preserveAspectRatio="xMidYMid meet">

<g transform="translate(0.000000,192.000000) scale(0.100000,-0.100000)"
fill="#000000" stroke="none">
<path d="M892 1869 c-98 -17 -241 -71 -323 -122 -96 -59 -214 -167 -274 -252
-129 -181 -192 -422 -167 -630 29 -230 121 -416 284 -571 186 -176 425 -265
678 -251 395 22 721 283 837 672 23 80 26 107 27 240 0 155 -8 205 -55 335
-96 261 -347 487 -624 560 -92 25 -297 35 -383 19z m301 -235 c203 -46 372
-177 462 -359 99 -199 99 -411 1 -610 -79 -159 -217 -282 -382 -340 -106 -37
-271 -46 -377 -20 -90 21 -199 73 -252 118 -36 31 -40 40 -40 80 0 34 6 52 24
71 31 33 81 43 118 23 15 -8 57 -31 93 -50 87 -46 154 -61 254 -54 95 6 165
31 248 89 61 43 98 91 98 126 0 11 -12 34 -26 51 -38 45 -81 43 -142 -8 -87
-72 -168 -96 -264 -79 -64 12 -98 29 -149 75 -165 149 -112 424 97 503 105 39
243 12 312 -63 37 -39 76 -52 112 -37 33 14 60 55 60 90 0 35 -87 117 -164
155 -160 79 -335 68 -483 -30 -68 -45 -117 -47 -156 -7 -57 60 -42 127 40 180
154 99 345 134 516 96z"/>
<path d="M979 1108 c-103 -59 -106 -217 -7 -278 75 -46 153 -35 211 29 54 60
60 128 17 199 -43 71 -146 94 -221 50z"/>
<path d="M4412 1857 c-22 -23 -22 -27 -22 -389 0 -354 1 -366 21 -392 25 -31
66 -34 100 -7 l24 19 0 377 0 377 -24 19 c-32 26 -73 24 -99 -4z"/>
<path d="M2305 1846 l-25 -25 0 -361 0 -361 25 -24 c32 -33 78 -33 110 0 24
24 25 28 25 180 l0 155 51 0 c99 0 126 -24 245 -222 69 -114 92 -138 135 -138
34 0 79 36 79 63 0 55 -116 241 -179 288 l-31 22 70 34 c56 27 74 42 94 76 65
114 27 249 -87 310 -39 20 -58 22 -264 25 l-222 4 -26 -26z m388 -107 c90 -25
104 -158 20 -199 -17 -8 -75 -15 -150 -18 l-123 -4 0 116 0 116 108 0 c59 0
124 -5 145 -11z"/>
<path d="M3202 1642 c-63 -23 -123 -77 -154 -141 -19 -38 -22 -63 -22 -146 0
-117 20 -171 85 -229 62 -57 101 -70 214 -70 89 0 105 2 151 26 62 33 104 80
104 117 0 58 -53 68 -108 20 -71 -63 -154 -84 -210 -55 -36 19 -68 55 -77 86
-3 14 -9 33 -11 42 -5 15 12 17 186 20 188 3 192 4 211 27 39 48 15 171 -47
235 -54 56 -108 79 -194 83 -56 3 -89 -1 -128 -15z m175 -112 c35 -21 52 -48
64 -97 l7 -33 -138 0 -138 0 10 38 c6 20 14 45 20 55 15 28 69 57 108 57 19 0
49 -9 67 -20z"/>
<path d="M3885 1653 c-98 -21 -175 -91 -175 -158 0 -25 38 -55 69 -55 22 0 35
9 55 39 33 48 79 71 138 71 59 0 90 -18 107 -63 18 -48 19 -48 -112 -76 -180
-39 -201 -47 -241 -91 -21 -24 -36 -51 -37 -68 -4 -90 14 -130 73 -170 37 -24
51 -27 122 -27 82 0 139 19 189 63 17 15 21 13 56 -26 42 -46 71 -53 110 -26
20 14 22 22 17 58 -4 22 -10 120 -15 216 -5 117 -13 187 -23 210 -33 77 -111
111 -246 109 -37 -1 -76 -3 -87 -6z m201 -360 c-9 -73 -26 -100 -83 -125 -83
-37 -163 -7 -163 61 0 48 21 63 131 91 57 16 108 28 113 29 5 1 6 -24 2 -56z"/>
<path d="M3199 857 c-63 -18 -107 -45 -143 -90 -27 -34 -31 -47 -34 -110 -2
-56 1 -80 16 -107 25 -47 100 -96 183 -120 38 -11 100 -29 138 -40 51 -15 76
-28 95 -51 89 -106 -78 -227 -220 -159 -34 17 -49 33 -78 89 -46 88 -77 102
-131 59 -24 -19 -27 -26 -22 -65 16 -142 161 -232 353 -220 177 11 284 105
284 252 0 146 -62 196 -328 266 -101 26 -142 56 -142 103 0 55 61 96 141 96
68 0 102 -22 143 -89 23 -37 46 -63 60 -67 34 -8 72 11 86 45 26 65 -31 150
-130 194 -56 25 -204 33 -271 14z"/>
<path d="M4651 845 c-24 -21 -55 -89 -165 -367 -75 -187 -136 -351 -136 -365
0 -34 42 -73 80 -73 39 0 58 22 96 117 l32 78 164 3 164 2 33 -81 c39 -95 60
-119 101 -119 39 0 80 39 80 76 0 22 -237 620 -276 696 -31 60 -121 76 -173
33z m185 -482 c-2 -2 -55 -2 -118 -1 l-115 3 53 150 c30 83 57 157 60 165 3 9
31 -56 65 -149 32 -90 57 -166 55 -168z"/>
<path d="M2323 850 c-12 -5 -26 -18 -32 -29 -7 -13 -11 -141 -11 -371 l0 -351
25 -24 24 -25 263 0 c297 0 308 2 308 65 0 61 -16 65 -252 65 l-208 0 0 115 0
115 188 0 c202 0 216 3 227 52 5 19 1 32 -14 47 -20 20 -32 21 -211 21 l-190
0 0 100 0 100 205 0 c192 0 206 1 225 20 11 11 20 31 20 45 0 14 -9 34 -20 45
-19 19 -33 20 -272 19 -139 0 -263 -4 -275 -9z"/>
<path d="M3720 840 c-11 -11 -20 -31 -20 -45 0 -14 9 -34 20 -45 18 -18 33
-20 130 -20 l110 0 0 -310 c0 -253 3 -316 15 -339 24 -48 77 -55 122 -17 l28
24 3 321 3 321 105 0 c98 0 107 2 129 25 14 13 25 31 25 40 0 9 -11 27 -25 40
l-24 25 -301 0 c-287 0 -301 -1 -320 -20z"/>
<path d="M5060 840 c-11 -11 -20 -31 -20 -45 0 -14 9 -34 20 -45 18 -18 33
-20 130 -20 l110 0 0 -310 c0 -253 3 -316 15 -339 24 -48 77 -55 122 -17 l28
24 3 321 3 321 105 0 c98 0 107 2 129 25 14 13 25 31 25 40 0 9 -11 27 -25 40
l-24 25 -301 0 c-287 0 -301 -1 -320 -20z"/>
<path d="M5873 850 c-12 -5 -26 -18 -32 -29 -7 -13 -11 -141 -11 -371 l0 -351
25 -24 24 -25 263 0 c297 0 308 2 308 65 0 61 -16 65 -252 65 l-208 0 0 115 0
115 188 0 c202 0 216 3 227 52 5 19 1 32 -14 47 -20 20 -32 21 -211 21 l-190
0 0 100 0 100 205 0 c192 0 206 1 225 20 11 11 20 31 20 45 0 14 -9 34 -20 45
-19 19 -33 20 -272 19 -139 0 -263 -4 -275 -9z"/>
</g>
</svg>
