<?xml version="1.0" standalone="no"?>
<!DOCTYPE svg PUBLIC "-//W3C//DTD SVG 20010904//EN"
 "http://www.w3.org/TR/2001/REC-SVG-20010904/DTD/svg10.dtd">
<svg version="1.0" xmlns="http://www.w3.org/2000/svg"
 width="359.000000pt" height="100.000000pt" viewBox="0 0 359.000000 100.000000"
 preserveAspectRatio="xMidYMid meet">

<g transform="translate(0.000000,100.000000) scale(0.100000,-0.100000)"
fill="#000000" stroke="none">
<path d="M609 859 c-14 -5 -32 -22 -40 -37 -100 -195 -227 -359 -358 -464 -39
-31 -42 -37 -32 -56 15 -29 24 -28 74 7 54 38 112 94 162 156 22 28 45 55 50
60 19 18 82 118 123 195 55 101 74 102 122 5 45 -91 86 -159 128 -215 98 -130
235 -242 276 -227 33 13 16 45 -47 90 -97 69 -131 113 -147 185 -12 57 -10 94
5 148 4 13 0 27 -10 37 -27 28 -53 5 -61 -54 -4 -30 -11 -48 -18 -46 -6 2 -33
46 -60 99 -62 120 -95 143 -167 117z"/>
<path d="M567 514 c-4 -4 -7 -16 -7 -26 0 -13 7 -18 26 -18 21 0 25 4 22 22
-3 23 -27 35 -41 22z"/>
<path d="M640 495 c0 -20 5 -25 24 -25 14 0 27 4 30 9 11 18 -6 41 -30 41 -19
0 -24 -5 -24 -25z"/>
<path d="M1270 421 c0 -49 -3 -103 -6 -120 -6 -30 -6 -31 30 -31 l36 0 0 95 0
95 41 0 c36 0 40 -2 37 -22 -2 -16 -11 -24 -30 -26 l-26 -3 22 -67 c22 -65 24
-67 60 -70 l36 -3 -24 54 -24 55 29 21 c28 21 37 53 21 77 -15 24 -54 34 -126
34 l-76 0 0 -89z"/>
<path d="M1950 458 c0 -29 -3 -83 -7 -120 l-6 -68 30 0 c28 0 31 3 37 46 3 26
6 80 6 120 l0 74 -30 0 c-30 0 -30 -1 -30 -52z"/>
<path d="M2120 428 c0 -46 -3 -100 -6 -120 l-7 -38 97 0 c96 0 96 0 96 25 0
24 -3 25 -61 25 -57 0 -60 1 -57 23 3 19 10 22 56 25 48 3 52 5 52 28 0 22 -4
24 -50 24 -43 0 -50 3 -50 20 0 18 7 20 60 20 57 0 60 1 60 25 0 25 0 25 -95
25 l-95 0 0 -82z"/>
<path d="M2393 500 c-22 -9 -43 -39 -43 -61 0 -7 21 -32 47 -55 55 -50 50 -69
-16 -62 -32 3 -40 0 -36 -10 3 -8 5 -17 5 -22 0 -5 20 -12 44 -15 55 -9 97 10
111 49 9 26 6 31 -33 66 -56 50 -56 73 -2 68 40 -4 48 4 31 30 -10 17 -79 25
-108 12z"/>
<path d="M2530 485 c0 -22 4 -25 36 -25 l35 0 -3 -95 -3 -95 38 0 37 0 0 95 0
95 40 0 c36 0 40 3 40 25 l0 25 -110 0 -110 0 0 -25z"/>
<path d="M2803 390 l-63 -120 38 0 c34 0 40 4 55 36 17 34 19 35 64 32 44 -3
48 -5 57 -35 8 -30 13 -33 47 -33 l38 0 -26 68 c-14 37 -33 90 -43 117 -16 49
-18 50 -61 53 l-44 2 -62 -120z m117 31 c8 -30 7 -31 -21 -31 l-29 0 17 35
c19 40 20 39 33 -4z"/>
<path d="M3060 485 c0 -22 4 -25 36 -25 l35 0 -3 -95 -3 -95 38 0 37 0 0 95 0
95 40 0 c36 0 40 3 40 25 l0 25 -110 0 -110 0 0 -25z"/>
<path d="M3300 428 c0 -46 -3 -100 -6 -120 l-7 -38 97 0 c96 0 96 0 96 25 0
24 -3 25 -61 25 -57 0 -60 1 -57 23 3 19 10 22 56 25 48 3 52 5 52 28 0 22 -4
24 -50 24 -43 0 -50 3 -50 20 0 18 7 20 60 20 57 0 60 1 60 25 0 25 0 25 -95
25 l-95 0 0 -82z"/>
<path d="M1554 436 c-54 -24 -66 -107 -22 -143 38 -32 138 -27 138 7 0 15 -9
19 -47 22 -73 5 -68 28 6 28 58 0 61 1 61 24 0 57 -73 91 -136 62z m76 -41 c0
-10 -10 -15 -30 -15 -29 0 -38 9 -23 23 13 13 53 7 53 -8z"/>
<path d="M1768 443 c-48 -8 -34 -33 18 -33 57 0 55 -20 -3 -35 -72 -18 -95
-58 -51 -89 31 -22 65 -20 71 4 4 15 0 20 -14 20 -25 0 -24 16 0 30 33 17 41
11 41 -30 0 -37 2 -40 29 -40 28 0 28 1 34 73 5 53 3 75 -7 85 -15 15 -75 23
-118 15z"/>
<path d="M560 415 c0 -20 5 -25 25 -25 20 0 25 5 25 25 0 20 -5 25 -25 25 -20
0 -25 -5 -25 -25z"/>
<path d="M650 410 c0 -13 7 -20 20 -20 13 0 20 7 20 20 0 13 -7 20 -20 20 -13
0 -20 -7 -20 -20z"/>
<path d="M535 304 c-45 -7 -147 -23 -174 -29 -27 -5 -132 -38 -198 -61 -43
-15 -57 -33 -47 -59 8 -20 29 -19 93 6 30 11 102 32 160 47 95 24 125 26 286
27 193 0 246 -9 426 -72 42 -15 83 -23 93 -20 25 10 16 45 -14 62 -41 22 -185
65 -273 81 -83 15 -297 26 -352 18z"/>
</g>
</svg>
